<mxfile host="app.diagrams.net" modified="2023-03-25T06:00:55.914Z" agent="Mozilla/5.0 (Macintosh; Intel Mac OS X 10_15_7) AppleWebKit/537.36 (KHTML, like Gecko) Chrome/111.0.0.0 Safari/537.36" etag="kxgTbSzAF0bBuhP-GAK5" version="21.1.0" type="github">
  <diagram id="C5RBs43oDa-KdzZeNtuy" name="Page-1">
    <mxGraphModel dx="1434" dy="718" grid="1" gridSize="10" guides="1" tooltips="1" connect="1" arrows="1" fold="1" page="1" pageScale="1" pageWidth="827" pageHeight="1169" math="0" shadow="0">
      <root>
        <mxCell id="WIyWlLk6GJQsqaUBKTNV-0" />
        <mxCell id="WIyWlLk6GJQsqaUBKTNV-1" parent="WIyWlLk6GJQsqaUBKTNV-0" />
        <mxCell id="IausX-OG_K72KzW1ZFLV-0" value="&lt;font style=&quot;font-size: 18px;&quot;&gt;&lt;b&gt;common&lt;/b&gt;&lt;/font&gt;" style="html=1;dropTarget=0;whiteSpace=wrap;fillColor=#f5f5f5;fontColor=#333333;strokeColor=#666666;" vertex="1" parent="WIyWlLk6GJQsqaUBKTNV-1">
          <mxGeometry x="300" y="180" width="130" height="70" as="geometry" />
        </mxCell>
        <mxCell id="IausX-OG_K72KzW1ZFLV-1" value="" style="shape=module;jettyWidth=8;jettyHeight=4;" vertex="1" parent="IausX-OG_K72KzW1ZFLV-0">
          <mxGeometry x="1" width="20" height="20" relative="1" as="geometry">
            <mxPoint x="-27" y="7" as="offset" />
          </mxGeometry>
        </mxCell>
        <mxCell id="IausX-OG_K72KzW1ZFLV-20" style="edgeStyle=orthogonalEdgeStyle;rounded=0;orthogonalLoop=1;jettySize=auto;html=1;exitX=0.5;exitY=0;exitDx=0;exitDy=0;entryX=0.5;entryY=1;entryDx=0;entryDy=0;" edge="1" parent="WIyWlLk6GJQsqaUBKTNV-1" source="IausX-OG_K72KzW1ZFLV-2" target="IausX-OG_K72KzW1ZFLV-0">
          <mxGeometry relative="1" as="geometry" />
        </mxCell>
        <mxCell id="IausX-OG_K72KzW1ZFLV-2" value="&lt;font style=&quot;font-size: 18px;&quot;&gt;&lt;b&gt;dao&lt;/b&gt;&lt;/font&gt;" style="html=1;dropTarget=0;whiteSpace=wrap;fillColor=#f5f5f5;fontColor=#333333;strokeColor=#666666;" vertex="1" parent="WIyWlLk6GJQsqaUBKTNV-1">
          <mxGeometry x="300" y="310" width="130" height="70" as="geometry" />
        </mxCell>
        <mxCell id="IausX-OG_K72KzW1ZFLV-3" value="" style="shape=module;jettyWidth=8;jettyHeight=4;" vertex="1" parent="IausX-OG_K72KzW1ZFLV-2">
          <mxGeometry x="1" width="20" height="20" relative="1" as="geometry">
            <mxPoint x="-27" y="7" as="offset" />
          </mxGeometry>
        </mxCell>
        <mxCell id="IausX-OG_K72KzW1ZFLV-21" style="edgeStyle=orthogonalEdgeStyle;rounded=0;orthogonalLoop=1;jettySize=auto;html=1;exitX=0.5;exitY=0;exitDx=0;exitDy=0;entryX=0.5;entryY=1;entryDx=0;entryDy=0;dashed=1;" edge="1" parent="WIyWlLk6GJQsqaUBKTNV-1" source="IausX-OG_K72KzW1ZFLV-4" target="IausX-OG_K72KzW1ZFLV-2">
          <mxGeometry relative="1" as="geometry" />
        </mxCell>
        <mxCell id="IausX-OG_K72KzW1ZFLV-4" value="&lt;font style=&quot;font-size: 18px;&quot;&gt;&lt;b&gt;feature&lt;/b&gt;&lt;/font&gt;" style="html=1;dropTarget=0;whiteSpace=wrap;fillColor=#f5f5f5;fontColor=#333333;strokeColor=#666666;" vertex="1" parent="WIyWlLk6GJQsqaUBKTNV-1">
          <mxGeometry x="300" y="450" width="130" height="70" as="geometry" />
        </mxCell>
        <mxCell id="IausX-OG_K72KzW1ZFLV-5" value="" style="shape=module;jettyWidth=8;jettyHeight=4;" vertex="1" parent="IausX-OG_K72KzW1ZFLV-4">
          <mxGeometry x="1" width="20" height="20" relative="1" as="geometry">
            <mxPoint x="-27" y="7" as="offset" />
          </mxGeometry>
        </mxCell>
        <mxCell id="IausX-OG_K72KzW1ZFLV-16" style="edgeStyle=orthogonalEdgeStyle;rounded=0;orthogonalLoop=1;jettySize=auto;html=1;exitX=0.5;exitY=0;exitDx=0;exitDy=0;" edge="1" parent="WIyWlLk6GJQsqaUBKTNV-1" source="IausX-OG_K72KzW1ZFLV-6" target="IausX-OG_K72KzW1ZFLV-2">
          <mxGeometry relative="1" as="geometry" />
        </mxCell>
        <mxCell id="IausX-OG_K72KzW1ZFLV-17" style="edgeStyle=orthogonalEdgeStyle;rounded=0;orthogonalLoop=1;jettySize=auto;html=1;exitX=0.5;exitY=1;exitDx=0;exitDy=0;" edge="1" parent="WIyWlLk6GJQsqaUBKTNV-1" source="IausX-OG_K72KzW1ZFLV-6" target="IausX-OG_K72KzW1ZFLV-4">
          <mxGeometry relative="1" as="geometry" />
        </mxCell>
        <mxCell id="IausX-OG_K72KzW1ZFLV-6" value="&lt;font style=&quot;font-size: 18px;&quot;&gt;&lt;b&gt;web&lt;/b&gt;&lt;/font&gt;" style="html=1;dropTarget=0;whiteSpace=wrap;fillColor=#fff2cc;strokeColor=#d6b656;" vertex="1" parent="WIyWlLk6GJQsqaUBKTNV-1">
          <mxGeometry x="80" y="380" width="130" height="70" as="geometry" />
        </mxCell>
        <mxCell id="IausX-OG_K72KzW1ZFLV-7" value="" style="shape=module;jettyWidth=8;jettyHeight=4;" vertex="1" parent="IausX-OG_K72KzW1ZFLV-6">
          <mxGeometry x="1" width="20" height="20" relative="1" as="geometry">
            <mxPoint x="-27" y="7" as="offset" />
          </mxGeometry>
        </mxCell>
        <mxCell id="IausX-OG_K72KzW1ZFLV-12" style="edgeStyle=entityRelationEdgeStyle;rounded=0;orthogonalLoop=1;jettySize=auto;html=1;exitX=0;exitY=0.5;exitDx=0;exitDy=0;entryX=1;entryY=0.5;entryDx=0;entryDy=0;" edge="1" parent="WIyWlLk6GJQsqaUBKTNV-1" source="IausX-OG_K72KzW1ZFLV-8" target="IausX-OG_K72KzW1ZFLV-4">
          <mxGeometry relative="1" as="geometry" />
        </mxCell>
        <mxCell id="IausX-OG_K72KzW1ZFLV-14" style="edgeStyle=orthogonalEdgeStyle;rounded=0;orthogonalLoop=1;jettySize=auto;html=1;exitX=0;exitY=0.25;exitDx=0;exitDy=0;entryX=1;entryY=0.25;entryDx=0;entryDy=0;" edge="1" parent="WIyWlLk6GJQsqaUBKTNV-1" source="IausX-OG_K72KzW1ZFLV-8" target="IausX-OG_K72KzW1ZFLV-2">
          <mxGeometry relative="1" as="geometry" />
        </mxCell>
        <mxCell id="IausX-OG_K72KzW1ZFLV-8" value="&lt;font style=&quot;font-size: 18px;&quot;&gt;&lt;b&gt;training&lt;/b&gt;&lt;/font&gt;" style="html=1;dropTarget=0;whiteSpace=wrap;fillColor=#fff2cc;strokeColor=#d6b656;" vertex="1" parent="WIyWlLk6GJQsqaUBKTNV-1">
          <mxGeometry x="550" y="310" width="130" height="70" as="geometry" />
        </mxCell>
        <mxCell id="IausX-OG_K72KzW1ZFLV-9" value="" style="shape=module;jettyWidth=8;jettyHeight=4;" vertex="1" parent="IausX-OG_K72KzW1ZFLV-8">
          <mxGeometry x="1" width="20" height="20" relative="1" as="geometry">
            <mxPoint x="-27" y="7" as="offset" />
          </mxGeometry>
        </mxCell>
        <mxCell id="IausX-OG_K72KzW1ZFLV-13" style="edgeStyle=entityRelationEdgeStyle;rounded=0;orthogonalLoop=1;jettySize=auto;html=1;exitX=0;exitY=0.5;exitDx=0;exitDy=0;entryX=1;entryY=0.5;entryDx=0;entryDy=0;" edge="1" parent="WIyWlLk6GJQsqaUBKTNV-1" source="IausX-OG_K72KzW1ZFLV-10" target="IausX-OG_K72KzW1ZFLV-2">
          <mxGeometry relative="1" as="geometry" />
        </mxCell>
        <mxCell id="IausX-OG_K72KzW1ZFLV-15" style="edgeStyle=orthogonalEdgeStyle;rounded=0;orthogonalLoop=1;jettySize=auto;html=1;exitX=0;exitY=0.75;exitDx=0;exitDy=0;entryX=1;entryY=0.75;entryDx=0;entryDy=0;" edge="1" parent="WIyWlLk6GJQsqaUBKTNV-1" source="IausX-OG_K72KzW1ZFLV-10" target="IausX-OG_K72KzW1ZFLV-4">
          <mxGeometry relative="1" as="geometry" />
        </mxCell>
        <mxCell id="IausX-OG_K72KzW1ZFLV-10" value="&lt;span style=&quot;font-size: 18px;&quot;&gt;&lt;b&gt;serving&lt;/b&gt;&lt;/span&gt;" style="html=1;dropTarget=0;whiteSpace=wrap;fillColor=#fff2cc;strokeColor=#d6b656;" vertex="1" parent="WIyWlLk6GJQsqaUBKTNV-1">
          <mxGeometry x="550" y="450" width="130" height="70" as="geometry" />
        </mxCell>
        <mxCell id="IausX-OG_K72KzW1ZFLV-11" value="" style="shape=module;jettyWidth=8;jettyHeight=4;" vertex="1" parent="IausX-OG_K72KzW1ZFLV-10">
          <mxGeometry x="1" width="20" height="20" relative="1" as="geometry">
            <mxPoint x="-27" y="7" as="offset" />
          </mxGeometry>
        </mxCell>
      </root>
    </mxGraphModel>
  </diagram>
</mxfile>
